<svg xmlns="http://www.w3.org/2000/svg" viewBox="0 0 184 13"><defs><style>.cls-1{fill:none;stroke:#de4e64;stroke-linecap:round;stroke-linejoin:round;stroke-width:2px;}</style></defs><title>curvy_line</title><g id="_1" data-name="1"><path class="cls-1" d="M182,11.49a5,5,0,0,1-5-5,5,5,0,0,0-10,0,5,5,0,1,1-10,0,5,5,0,0,0-10,0,5,5,0,1,1-10,0,5,5,0,0,0-10,0,5,5,0,0,1-5,5h0a5,5,0,0,1-5-5,5,5,0,1,0-10,0,5,5,0,0,1-10,0,5,5,0,1,0-10,0,5,5,0,0,1-10,0,5,5,0,1,0-10,0,5,5,0,0,1-10,0,5,5,0,0,0-10,0,5,5,0,1,1-10,0,5,5,0,0,0-10,0,5,5,0,0,1-10,0,5,5,0,0,0-10,0,5,5,0,0,1-5,5"/></g></svg>