<?xml version="1.0" encoding="utf-8"?>
<!-- Generator: Adobe Illustrator 22.1.0, SVG Export Plug-In . SVG Version: 6.00 Build 0)  -->
<svg version="1.1" id="Layer_1" xmlns="http://www.w3.org/2000/svg" xmlns:xlink="http://www.w3.org/1999/xlink" x="0px" y="0px"
	 viewBox="0 0 33.3 33.3" style="enable-background:new 0 0 33.3 33.3;" xml:space="preserve">
<style type="text/css">
	.st0{fill:#DE4E64;}
	.st1{fill:#FFFFFF;}
	.st2{display:none;}
</style>
<g id="Browser_Preview">
</g>
<g id="bg">
</g>
<g id="bg2">
	<g>
		<g>
			<defs>
				<rect id="SVGID_1_" x="-1723.6" y="-1033.8" width="1600" height="814"/>
			</defs>
			<clipPath id="SVGID_2_">
				<use xlink:href="#SVGID_1_"  style="overflow:visible;"/>
			</clipPath>
		</g>
	</g>
	<g>
		<g>
			<defs>
				<rect id="SVGID_3_" x="88.4" y="-1033.8" width="1600" height="814"/>
			</defs>
			<clipPath id="SVGID_4_">
				<use xlink:href="#SVGID_3_"  style="overflow:visible;"/>
			</clipPath>
		</g>
	</g>
</g>
<g id="_x31_">
</g>
<g id="fb_x5F_icon">
</g>
<g id="twit_x5F_icon">
	<g id="Twitter_1_">
		<rect id="back_4_" class="st0" width="33.3" height="33.3"/>
		<path id="Twitter_3_" class="st1" d="M26,10.9c-0.7,0.3-1.4,0.5-2.2,0.6c0.8-0.5,1.4-1.2,1.7-2.1c-0.7,0.4-1.6,0.8-2.4,0.9
			c-0.7-0.7-1.7-1.2-2.8-1.2c-2.1,0-3.8,1.7-3.8,3.8c0,0.3,0,0.6,0.1,0.9c-3.2-0.2-6-1.7-7.9-4c-0.3,0.6-0.5,1.2-0.5,1.9
			c0,1.3,0.7,2.5,1.7,3.2c-0.6,0-1.2-0.2-1.7-0.5l0,0c0,1.9,1.3,3.4,3.1,3.8c-0.3,0.1-0.7,0.1-1,0.1c-0.2,0-0.5,0-0.7-0.1
			c0.5,1.5,1.9,2.6,3.6,2.7c-1.3,1-3,1.6-4.8,1.6c-0.3,0-0.6,0-0.9-0.1c1.7,1.1,3.7,1.7,5.9,1.7c7,0,10.9-5.8,10.9-10.9
			c0-0.2,0-0.3,0-0.5C24.8,12.3,25.5,11.6,26,10.9z"/>
	</g>
</g>
<g id="ig_x5F_icon">
</g>
<g id="yt_x5F_icon">
</g>
<g id="src" class="st2">
</g>
<g id="Grid_Guide">
</g>
<g id="Layer_7">
</g>
</svg>
