<?xml version="1.0" encoding="utf-8"?>
<!-- Generator: Adobe Illustrator 22.1.0, SVG Export Plug-In . SVG Version: 6.00 Build 0)  -->
<svg version="1.1" id="Layer_1" xmlns="http://www.w3.org/2000/svg" xmlns:xlink="http://www.w3.org/1999/xlink" x="0px" y="0px"
	 viewBox="0 0 33.3 33.3" style="enable-background:new 0 0 33.3 33.3;" xml:space="preserve">
<style type="text/css">
	.st0{fill:#DE4E64;}
	.st1{fill:#FFFFFF;}
	.st2{display:none;}
</style>
<g id="Browser_Preview">
</g>
<g id="bg">
</g>
<g id="bg2">
	<g>
		<g>
			<defs>
				<rect id="SVGID_1_" x="-1723.6" y="-990.9" width="1600" height="814"/>
			</defs>
			<clipPath id="SVGID_2_">
				<use xlink:href="#SVGID_1_"  style="overflow:visible;"/>
			</clipPath>
		</g>
	</g>
	<g>
		<g>
			<defs>
				<rect id="SVGID_3_" x="88.4" y="-990.9" width="1600" height="814"/>
			</defs>
			<clipPath id="SVGID_4_">
				<use xlink:href="#SVGID_3_"  style="overflow:visible;"/>
			</clipPath>
		</g>
	</g>
</g>
<g id="_x31_">
</g>
<g id="fb_x5F_icon">
</g>
<g id="twit_x5F_icon">
</g>
<g id="ig_x5F_icon">
	<g id="Instagram_1_">
		<rect id="back_3_" class="st0" width="33.3" height="33.3"/>
		<path id="Instagram_3_" class="st1" d="M23.8,15.2h-1.6c0.1,0.5,0.2,0.9,0.2,1.4c0,3.2-2.6,5.7-5.7,5.7S11,19.7,11,16.6
			c0-0.5,0.1-1,0.2-1.4H9.5v7.9c0,0.4,0.3,0.7,0.7,0.7h12.9c0.4,0,0.7-0.3,0.7-0.7V15.2z M23.8,10.2c0-0.4-0.3-0.7-0.7-0.7H21
			c-0.4,0-0.7,0.3-0.7,0.7v2.2c0,0.4,0.3,0.7,0.7,0.7h2.2c0.4,0,0.7-0.3,0.7-0.7v-2.2H23.8z M16.7,13.1c-2,0-3.6,1.6-3.6,3.6
			s1.6,3.6,3.6,3.6s3.6-1.6,3.6-3.6C20.2,14.7,18.6,13.1,16.7,13.1 M23.8,26H9.5c-1.2,0-2.2-1-2.2-2.2V9.5c0-1.2,1-2.2,2.2-2.2h14.4
			c1.2,0,2.2,1,2.2,2.2v14.4C26,25,25,26,23.8,26"/>
	</g>
</g>
<g id="yt_x5F_icon">
</g>
<g id="src" class="st2">
</g>
<g id="Grid_Guide">
</g>
<g id="Layer_7">
</g>
</svg>
