<?xml version="1.0" encoding="utf-8"?>
<!-- Generator: Adobe Illustrator 22.1.0, SVG Export Plug-In . SVG Version: 6.00 Build 0)  -->
<svg version="1.1" id="Layer_1" xmlns="http://www.w3.org/2000/svg" xmlns:xlink="http://www.w3.org/1999/xlink" x="0px" y="0px"
	 viewBox="0 0 33.3 33.3" style="enable-background:new 0 0 33.3 33.3;" xml:space="preserve">
<style type="text/css">
	.st0{fill:#FFFFFF;}
	.st1{display:none;}
</style>
<g id="Browser_Preview">
</g>
<g id="bg">
</g>
<g id="_x31_">
</g>
<g id="fb_x5F_icon">
	<g id="Facebook_1_">
		<path id="Facebook_3_" class="st0" d="M25,7.3H8.4c-0.6,0-1,0.5-1,1V25c0,0.6,0.5,1,1,1h8.9v-7.2h-2.4V16h2.4v-2.1
			c0-2.4,1.5-3.7,3.6-3.7c1,0,1.9,0.1,2.2,0.1v2.5h-1.5c-1.2,0-1.4,0.6-1.4,1.4V16H23l-0.4,2.8h-2.4V26H25c0.6,0,1-0.5,1-1V8.4
			C26,7.8,25.5,7.3,25,7.3z"/>
	</g>
</g>
<g id="twit_x5F_icon">
</g>
<g id="ig_x5F_icon">
</g>
<g id="yt_x5F_icon">
</g>
<g id="src" class="st1">
</g>
<g id="Grid_Guide">
</g>
<g id="Layer_7">
</g>
</svg>
