<svg xmlns="http://www.w3.org/2000/svg" xmlns:xlink="http://www.w3.org/1999/xlink" viewBox="0 0 1598 18"><defs><style>.cls-1{fill:none;}.cls-2{clip-path:url(#clip-path);}.cls-3{fill:#fff;}.cls-4{fill:#de4e64;}</style><clipPath id="clip-path"><rect class="cls-1" x="1719" y="-673" width="1600" height="814"/></clipPath></defs><title>triangles</title><g id="bg2"><g class="cls-2"><image width="2048" height="1368" transform="translate(1563 -897) scale(0.96)" xlink:href="../../../Javi Rumbos Brand_Web_Design/img/1.jpg"/></g></g><g id="_1" data-name="1"><rect class="cls-3" width="1598" height="18"/><polygon class="cls-4" points="10.14 0 20.09 0 15.12 8.61 10.14 17.23 5.17 8.61 0.2 0 10.14 0"/><polygon class="cls-4" points="30.13 0 40.08 0 35.1 8.61 30.13 17.23 25.16 8.61 20.18 0 30.13 0"/><polygon class="cls-4" points="50.11 0 60.06 0 55.09 8.61 50.11 17.23 45.14 8.61 40.17 0 50.11 0"/><polygon class="cls-4" points="70.1 0 80.04 0 75.07 8.61 70.1 17.23 65.13 8.61 60.15 0 70.1 0"/><polygon class="cls-4" points="90.08 0 100.03 0 95.06 8.61 90.08 17.23 85.11 8.61 80.14 0 90.08 0"/><polygon class="cls-4" points="110.07 0 120.01 0 115.04 8.61 110.07 17.23 105.09 8.61 100.12 0 110.07 0"/><polygon class="cls-4" points="130.05 0 140 0 135.02 8.61 130.05 17.23 125.08 8.61 120.1 0 130.05 0"/><polygon class="cls-4" points="150.03 0 159.98 0 155.01 8.61 150.03 17.23 145.06 8.61 140.09 0 150.03 0"/><polygon class="cls-4" points="170.02 0 179.97 0 174.99 8.61 170.02 17.23 165.05 8.61 160.07 0 170.02 0"/><polygon class="cls-4" points="190 0 199.95 0 194.98 8.61 190 17.23 185.03 8.61 180.06 0 190 0"/><polygon class="cls-4" points="209.99 0 219.93 0 214.96 8.61 209.99 17.23 205.01 8.61 200.04 0 209.99 0"/><polygon class="cls-4" points="229.97 0 239.92 0 234.94 8.61 229.97 17.23 225 8.61 220.03 0 229.97 0"/><polygon class="cls-4" points="249.96 0 259.9 0 254.93 8.61 249.96 17.23 244.98 8.61 240.01 0 249.96 0"/><polygon class="cls-4" points="269.94 0 279.89 0 274.91 8.61 269.94 17.23 264.97 8.61 259.99 0 269.94 0"/><polygon class="cls-4" points="289.93 0 299.87 0 294.9 8.61 289.93 17.23 284.95 8.61 279.98 0 289.93 0"/><polygon class="cls-4" points="309.91 0 319.86 0 314.88 8.61 309.91 17.23 304.94 8.61 299.96 0 309.91 0"/><polygon class="cls-4" points="329.89 0 339.84 0 334.87 8.61 329.89 17.23 324.92 8.61 319.95 0 329.89 0"/><polygon class="cls-4" points="349.88 0 359.82 0 354.85 8.61 349.88 17.23 344.9 8.61 339.93 0 349.88 0"/><polygon class="cls-4" points="369.86 0 379.81 0 374.83 8.61 369.86 17.23 364.89 8.61 359.92 0 369.86 0"/><polygon class="cls-4" points="389.85 0 399.79 0 394.82 8.61 389.85 17.23 384.87 8.61 379.9 0 389.85 0"/><polygon class="cls-4" points="409.36 0 419.31 0 414.33 8.61 409.36 17.23 404.39 8.61 399.41 0 409.36 0"/><polygon class="cls-4" points="429.34 0 439.29 0 434.32 8.61 429.34 17.23 424.37 8.61 419.4 0 429.34 0"/><polygon class="cls-4" points="449.33 0 459.27 0 454.3 8.61 449.33 17.23 444.35 8.61 439.38 0 449.33 0"/><polygon class="cls-4" points="469.31 0 479.26 0 474.29 8.61 469.31 17.23 464.34 8.61 459.37 0 469.31 0"/><polygon class="cls-4" points="489.3 0 499.24 0 494.27 8.61 489.3 17.23 484.32 8.61 479.35 0 489.3 0"/><polygon class="cls-4" points="509.28 0 519.23 0 514.25 8.61 509.28 17.23 504.31 8.61 499.33 0 509.28 0"/><polygon class="cls-4" points="529.26 0 539.21 0 534.24 8.61 529.26 17.23 524.29 8.61 519.32 0 529.26 0"/><polygon class="cls-4" points="549.25 0 559.2 0 554.22 8.61 549.25 17.23 544.27 8.61 539.3 0 549.25 0"/><polygon class="cls-4" points="569.23 0 579.18 0 574.21 8.61 569.23 17.23 564.26 8.61 559.29 0 569.23 0"/><polygon class="cls-4" points="589.22 0 599.16 0 594.19 8.61 589.22 17.23 584.24 8.61 579.27 0 589.22 0"/><polygon class="cls-4" points="609.2 0 619.15 0 614.17 8.61 609.2 17.23 604.23 8.61 599.25 0 609.2 0"/><polygon class="cls-4" points="629.19 0 639.13 0 634.16 8.61 629.19 17.23 624.21 8.61 619.24 0 629.19 0"/><polygon class="cls-4" points="649.17 0 659.12 0 654.14 8.61 649.17 17.23 644.2 8.61 639.22 0 649.17 0"/><polygon class="cls-4" points="669.15 0 679.1 0 674.13 8.61 669.15 17.23 664.18 8.61 659.21 0 669.15 0"/><polygon class="cls-4" points="689.14 0 699.09 0 694.11 8.61 689.14 17.23 684.16 8.61 679.19 0 689.14 0"/><polygon class="cls-4" points="709.12 0 719.07 0 714.1 8.61 709.12 17.23 704.15 8.61 699.18 0 709.12 0"/><polygon class="cls-4" points="729.11 0 739.05 0 734.08 8.61 729.11 17.23 724.13 8.61 719.16 0 729.11 0"/><polygon class="cls-4" points="749.09 0 759.04 0 754.06 8.61 749.09 17.23 744.12 8.61 739.14 0 749.09 0"/><polygon class="cls-4" points="769.08 0 779.02 0 774.05 8.61 769.08 17.23 764.1 8.61 759.13 0 769.08 0"/><polygon class="cls-4" points="789.06 0 799.01 0 794.03 8.61 789.06 17.23 784.09 8.61 779.11 0 789.06 0"/><polygon class="cls-4" points="809.14 0 819.09 0 814.11 8.61 809.14 17.23 804.17 8.61 799.19 0 809.14 0"/><polygon class="cls-4" points="829.12 0 839.07 0 834.1 8.61 829.12 17.23 824.15 8.61 819.18 0 829.12 0"/><polygon class="cls-4" points="849.11 0 859.05 0 854.08 8.61 849.11 17.23 844.13 8.61 839.16 0 849.11 0"/><polygon class="cls-4" points="869.09 0 879.04 0 874.07 8.61 869.09 17.23 864.12 8.61 859.14 0 869.09 0"/><polygon class="cls-4" points="889.08 0 899.02 0 894.05 8.61 889.08 17.23 884.1 8.61 879.13 0 889.08 0"/><polygon class="cls-4" points="909.06 0 919.01 0 914.03 8.61 909.06 17.23 904.09 8.61 899.11 0 909.06 0"/><polygon class="cls-4" points="929.04 0 938.99 0 934.02 8.61 929.04 17.23 924.07 8.61 919.1 0 929.04 0"/><polygon class="cls-4" points="949.03 0 958.98 0 954 8.61 949.03 17.23 944.06 8.61 939.08 0 949.03 0"/><polygon class="cls-4" points="969.01 0 978.96 0 973.99 8.61 969.01 17.23 964.04 8.61 959.07 0 969.01 0"/><polygon class="cls-4" points="989 0 998.94 0 993.97 8.61 989 17.23 984.02 8.61 979.05 0 989 0"/><polygon class="cls-4" points="1008.98 0 1018.93 0 1013.96 8.61 1008.98 17.23 1004.01 8.61 999.03 0 1008.98 0"/><polygon class="cls-4" points="1028.97 0 1038.91 0 1033.94 8.61 1028.97 17.23 1023.99 8.61 1019.02 0 1028.97 0"/><polygon class="cls-4" points="1048.95 0 1058.9 0 1053.92 8.61 1048.95 17.23 1043.98 8.61 1039 0 1048.95 0"/><polygon class="cls-4" points="1068.93 0 1078.88 0 1073.91 8.61 1068.93 17.23 1063.96 8.61 1058.99 0 1068.93 0"/><polygon class="cls-4" points="1088.92 0 1098.87 0 1093.89 8.61 1088.92 17.23 1083.94 8.61 1078.97 0 1088.92 0"/><polygon class="cls-4" points="1108.9 0 1118.85 0 1113.88 8.61 1108.9 17.23 1103.93 8.61 1098.96 0 1108.9 0"/><polygon class="cls-4" points="1128.89 0 1138.83 0 1133.86 8.61 1128.89 17.23 1123.91 8.61 1118.94 0 1128.89 0"/><polygon class="cls-4" points="1148.87 0 1158.82 0 1153.85 8.61 1148.87 17.23 1143.9 8.61 1138.92 0 1148.87 0"/><polygon class="cls-4" points="1168.86 0 1178.8 0 1173.83 8.61 1168.86 17.23 1163.88 8.61 1158.91 0 1168.86 0"/><polygon class="cls-4" points="1188.84 0 1198.79 0 1193.81 8.61 1188.84 17.23 1183.87 8.61 1178.89 0 1188.84 0"/><polygon class="cls-4" points="1208.35 0 1218.3 0 1213.33 8.61 1208.35 17.23 1203.38 8.61 1198.41 0 1208.35 0"/><polygon class="cls-4" points="1228.34 0 1238.28 0 1233.31 8.61 1228.34 17.23 1223.36 8.61 1218.39 0 1228.34 0"/><polygon class="cls-4" points="1248.32 0 1258.27 0 1253.3 8.61 1248.32 17.23 1243.35 8.61 1238.38 0 1248.32 0"/><polygon class="cls-4" points="1268.31 0 1278.25 0 1273.28 8.61 1268.31 17.23 1263.33 8.61 1258.36 0 1268.31 0"/><polygon class="cls-4" points="1288.29 0 1298.24 0 1293.26 8.61 1288.29 17.23 1283.32 8.61 1278.34 0 1288.29 0"/><polygon class="cls-4" points="1308.27 0 1318.22 0 1313.25 8.61 1308.27 17.23 1303.3 8.61 1298.33 0 1308.27 0"/><polygon class="cls-4" points="1328.26 0 1338.2 0 1333.23 8.61 1328.26 17.23 1323.29 8.61 1318.31 0 1328.26 0"/><polygon class="cls-4" points="1348.24 0 1358.19 0 1353.22 8.61 1348.24 17.23 1343.27 8.61 1338.3 0 1348.24 0"/><polygon class="cls-4" points="1368.23 0 1378.17 0 1373.2 8.61 1368.23 17.23 1363.25 8.61 1358.28 0 1368.23 0"/><polygon class="cls-4" points="1388.21 0 1398.16 0 1393.18 8.61 1388.21 17.23 1383.24 8.61 1378.27 0 1388.21 0"/><polygon class="cls-4" points="1408.19 0 1418.14 0 1413.17 8.61 1408.19 17.23 1403.22 8.61 1398.25 0 1408.19 0"/><polygon class="cls-4" points="1428.18 0 1438.13 0 1433.15 8.61 1428.18 17.23 1423.21 8.61 1418.23 0 1428.18 0"/><polygon class="cls-4" points="1448.16 0 1458.11 0 1453.14 8.61 1448.16 17.23 1443.19 8.61 1438.22 0 1448.16 0"/><polygon class="cls-4" points="1468.15 0 1478.1 0 1473.12 8.61 1468.15 17.23 1463.17 8.61 1458.2 0 1468.15 0"/><polygon class="cls-4" points="1488.13 0 1498.08 0 1493.11 8.61 1488.13 17.23 1483.16 8.61 1478.19 0 1488.13 0"/><polygon class="cls-4" points="1508.12 0 1518.06 0 1513.09 8.61 1508.12 17.23 1503.14 8.61 1498.17 0 1508.12 0"/><polygon class="cls-4" points="1528.1 0 1538.05 0 1533.07 8.61 1528.1 17.23 1523.13 8.61 1518.15 0 1528.1 0"/><polygon class="cls-4" points="1548.09 0 1558.03 0 1553.06 8.61 1548.09 17.23 1543.11 8.61 1538.14 0 1548.09 0"/><polygon class="cls-4" points="1568.07 0 1578.02 0 1573.04 8.61 1568.07 17.23 1563.1 8.61 1558.12 0 1568.07 0"/><polygon class="cls-4" points="1588.05 0 1598 0 1593.03 8.61 1588.05 17.23 1583.08 8.61 1578.11 0 1588.05 0"/></g></svg>