<svg xmlns="http://www.w3.org/2000/svg" viewBox="0 0 350 19"><defs><style>.cls-1{fill:none;stroke:#de4e64;stroke-linecap:round;stroke-linejoin:round;stroke-width:3px;}</style></defs><title>zigzag-transition-section-1</title><g id="_1" data-name="1"><polyline class="cls-1" points="2 16 2.06 16 5.49 10.07 8.91 4.14 12.34 10.07 15.76 16 15.82 16 19.25 10.07 22.67 4.14 26.09 10.07 29.52 16 29.61 16 33.04 10.07 36.46 4.14 39.89 10.07 43.31 16 43.38 16 46.8 10.07 50.22 4.14 53.65 10.07 57.07 16 57.13 16 60.56 10.07 63.98 4.14 67.41 10.07 70.83 16 70.89 16 74.32 10.07 77.74 4.14 81.17 10.07 84.59 16 84.69 16 88.11 10.07 91.53 4.14 94.96 10.07 98.38 16 98.45 16 101.87 10.07 105.29 4.14 108.72 10.07 112.14 16 112.2 16 115.63 10.07 119.05 4.14 122.48 10.07 125.9 16 125.96 16 129.39 10.07 132.81 4.14 136.24 10.07 139.66 16 139.76 16 143.18 10.07 146.6 4.14 150.03 10.07 153.45 16 153.52 16 156.94 10.07 160.37 4.14 163.79 10.07 167.21 16 167.28 16 170.7 10.07 174.12 4.14 177.55 10.07 180.97 16 181.03 16 184.46 10.07 187.88 4.14 191.31 10.07 194.73 16 194.83 16 198.25 10.07 201.68 4.14 205.1 10.07 208.53 16 208.59 16 212.01 10.07 215.44 4.14 218.86 10.07 222.28 16 222.35 16 225.77 10.07 229.19 4.14 232.62 10.07 236.04 16 236.11 16 239.53 10.07 242.95 4.14 246.38 10.07 249.8 16 249.9 16 253.32 10.07 256.75 4.14 260.17 10.07 263.6 16 263.66 16 267.08 10.07 270.51 4.14 273.93 10.07 277.36 16 277.42 16 280.84 10.07 284.27 4.14 287.69 10.07 291.11 16 291.18 16 294.6 10.07 298.02 4.14 301.45 10.07 304.87 16 304.97 16 308.39 10.07 311.82 4.14 315.24 10.07 318.67 16 318.73 16 322.15 10.07 325.58 4.14 329 10.07 332.43 16 332.49 16 335.91 10.07 339.34 4.14 342.76 10.07 346.19 16 346.25 16"/></g></svg>